<?xml version="1.0" encoding="UTF-8" standalone="no"?>
<!-- Generator: Adobe Illustrator 22.0.1, SVG Export Plug-In . SVG Version: 6.00 Build 0)  -->

<svg
   xmlns:dc="http://purl.org/dc/elements/1.1/"
   xmlns:cc="http://creativecommons.org/ns#"
   xmlns:rdf="http://www.w3.org/1999/02/22-rdf-syntax-ns#"
   xmlns:svg="http://www.w3.org/2000/svg"
   xmlns="http://www.w3.org/2000/svg"
   xmlns:sodipodi="http://sodipodi.sourceforge.net/DTD/sodipodi-0.dtd"
   xmlns:inkscape="http://www.inkscape.org/namespaces/inkscape"
   version="1.1"
   id="Warstwa_1"
   x="0px"
   y="0px"
   viewBox="0 0 100 100"
   style="enable-background:new 0 0 100 100;"
   xml:space="preserve"
   sodipodi:docname="TP_logo_black.svg"
   inkscape:export-filename="C:\Users\michal\Documents\processingProjects\tp-animation\docs\assets\images\TP_logo_sygnet.png"
   inkscape:export-xdpi="56.163769"
   inkscape:export-ydpi="56.163769"
   inkscape:version="0.92.4 (5da689c313, 2019-01-14)"><metadata
   id="metadata57"><rdf:RDF><cc:Work
       rdf:about=""><dc:format>image/svg+xml</dc:format><dc:type
         rdf:resource="http://purl.org/dc/dcmitype/StillImage" /></cc:Work></rdf:RDF></metadata><defs
   id="defs55"><marker
     inkscape:stockid="Arrow1Lend"
     orient="auto"
     refY="0.0"
     refX="0.0"
     id="Arrow1Lend"
     style="overflow:visible;"
     inkscape:isstock="true"><path
       id="path892"
       d="M 0.0,0.0 L 5.0,-5.0 L -12.5,0.0 L 5.0,5.0 L 0.0,0.0 z "
       style="fill-rule:evenodd;stroke:#000000;stroke-width:1.0pt;"
       transform="scale(0.8) rotate(180) translate(12.5,0)" /></marker><marker
     inkscape:stockid="Arrow1Lstart"
     orient="auto"
     refY="0.0"
     refX="0.0"
     id="Arrow1Lstart"
     style="overflow:visible"
     inkscape:isstock="true"><path
       id="path889"
       d="M 0.0,0.0 L 5.0,-5.0 L -12.5,0.0 L 5.0,5.0 L 0.0,0.0 z "
       style="fill-rule:evenodd;stroke:#000000;stroke-width:1.0pt"
       transform="scale(0.8) translate(12.5,0)" /></marker></defs><sodipodi:namedview
   pagecolor="#ffffff"
   bordercolor="#666666"
   borderopacity="1"
   objecttolerance="10"
   gridtolerance="10"
   guidetolerance="10"
   inkscape:pageopacity="0"
   inkscape:pageshadow="2"
   inkscape:window-width="1920"
   inkscape:window-height="1057"
   id="namedview53"
   showgrid="false"
   inkscape:zoom="6.675088"
   inkscape:cx="13.522907"
   inkscape:cy="48.473292"
   inkscape:window-x="-8"
   inkscape:window-y="-8"
   inkscape:window-maximized="1"
   inkscape:current-layer="g868" />
<style
   type="text/css"
   id="style2">
	.st0{fill:none;}
	.st1{enable-background:new    ;}
</style>

<g
   id="g868"><g
     id="g887"
     transform="matrix(1.4954068,0,0,1.4954068,-20.788819,-10.384527)"
     style="stroke-width:0.66871434;stroke-miterlimit:4;stroke-dasharray:none"><g
       id="g6"
       style="stroke-width:0.66871434;stroke-miterlimit:4;stroke-dasharray:none">
	<path
   d="m 23.8,65.9 -3.6,-4.2 37.9,-31.8 3.6,4.2 -4.2,3.6 0.5,0.7 c 2.4,-0.4 4.8,-0.2 7,0.8 2.3,1 4.2,2.4 5.8,4.4 1.4,1.7 2.4,3.5 3,5.5 0.6,2 0.8,4.1 0.6,6.2 -0.2,2.1 -0.9,4.2 -2,6.3 -1.1,2.1 -2.8,4.1 -5,5.9 l -1.1,0.9 c -2.2,1.9 -4.4,3.2 -6.7,3.9 -2.3,0.8 -4.4,1.1 -6.6,0.9 -2.1,-0.2 -4.1,-0.8 -6,-1.8 -1.9,-1 -3.5,-2.4 -5,-4.1 -0.7,-0.9 -1.4,-1.8 -1.9,-2.9 -0.6,-1.1 -1,-2.2 -1.2,-3.4 -0.3,-1.2 -0.4,-2.3 -0.4,-3.5 0,-1.2 0.3,-2.4 0.7,-3.5 l -0.5,-0.7 z m 21.7,-2.8 c 1.1,1.3 2.3,2.3 3.7,3 1.4,0.7 2.8,1.1 4.3,1.2 1.5,0.1 3.1,-0.1 4.6,-0.6 1.6,-0.6 3.1,-1.4 4.6,-2.7 l 1.1,-0.9 c 1.5,-1.2 2.6,-2.5 3.4,-4 0.8,-1.4 1.3,-2.9 1.5,-4.5 0.2,-1.5 0,-3 -0.4,-4.6 -0.5,-1.5 -1.2,-2.9 -2.3,-4.2 -1.1,-1.3 -2.3,-2.2 -3.7,-2.9 -1.4,-0.7 -2.9,-1.1 -4.4,-1.1 -1.6,-0.1 -3.1,0.1 -4.8,0.7 -1.6,0.5 -3.1,1.4 -4.6,2.6 l -0.7,0.5 c -1.5,1.2 -2.6,2.6 -3.5,4.1 -0.8,1.5 -1.3,3 -1.5,4.6 -0.2,1.5 -0.1,3.1 0.4,4.5 0.5,1.6 1.3,3 2.3,4.3 z"
   id="path4"
   inkscape:connector-curvature="0"
   style="stroke-width:0.66871434;stroke-miterlimit:4;stroke-dasharray:none" />
</g><g
       id="g10"
       style="stroke-width:0.66871434;stroke-miterlimit:4;stroke-dasharray:none">
	<path
   d="m 45.5,7.5 7.9,9.4 14,-7.4 3.6,4.2 -14,7.4 8.4,10 -3.9,3.3 L 52.4,23.5 30.7,35 c -0.5,0.3 -0.8,0.6 -0.9,1 -0.1,0.4 0,0.8 0.3,1.1 0.2,0.3 0.5,0.5 1,0.6 l 14.3,4.3 -4.7,3.7 -11,-3.1 C 28,42.1 26.6,41.2 25.5,40 c -1.1,-1.3 -1.6,-2.7 -1.6,-4.2 0,-1.5 0.8,-3 2.3,-4.2 0.3,-0.2 0.5,-0.4 0.8,-0.6 0.3,-0.2 0.6,-0.4 1,-0.5 L 48.7,19.4 41.6,10.9 Z"
   id="path8"
   inkscape:connector-curvature="0"
   style="stroke-width:0.66871434;stroke-miterlimit:4;stroke-dasharray:none" />
</g></g></g>
<rect
   x="5.8"
   y="82.4"
   class="st0"
   width="94.2"
   height="20.8"
   id="rect12" />
<g
   class="st1"
   id="g24">
	
	
	
	
	
</g>


</svg>